<?xml version="1.0" encoding="UTF-8"?>
<svg width="80px" height="20px" viewBox="0 0 80 20" version="1.1" xmlns="http://www.w3.org/2000/svg" xmlns:xlink="http://www.w3.org/1999/xlink">
    <g stroke="none" stroke-width="1" fill="none" fill-rule="evenodd">
        <g transform="translate(-716.000000, -745.000000)" fill-rule="nonzero">
            <g transform="translate(716.000000, 745.000000)">
                <path d="M29.8135484,4.35419342 L25.4012903,4.35419342 C25.0995098,4.3540032 24.8424981,4.57351692 24.7954839,4.8716129 L23.0109677,16.1858065 C22.9943648,16.2920581 23.0251034,16.4002531 23.0950901,16.4819043 C23.1650769,16.5635555 23.2672978,16.6104799 23.3748387,16.610323 L25.4812903,16.610323 C25.7832799,16.6104631 26.0403679,16.3906104 26.0870968,16.0922581 L26.5683871,13.0406452 C26.6150781,12.7425342 26.8718032,12.5227579 27.1735484,12.5225806 L28.5703226,12.5225806 C31.4767742,12.5225806 33.1541935,11.116129 33.5922581,8.32903226 C33.7896774,7.10967742 33.6006452,6.1516129 33.0296774,5.48064516 C32.4025806,4.74387097 31.2903226,4.35419342 29.8135484,4.35419342 L29.8135484,4.35419342 Z M30.3225806,8.48645161 C30.0812903,10.0696774 28.8716129,10.0696774 27.7019355,10.0696774 L27.036129,10.0696774 L27.5032258,7.11290323 C27.5314761,6.93419349 27.6855228,6.80258065 27.8664516,6.80258065 L28.1716129,6.80258065 C28.9683871,6.80258065 29.72,6.80258065 30.1083871,7.25677419 C30.34,7.52774194 30.4109677,7.93032258 30.3225806,8.48645161 L30.3225806,8.48645161 Z M43.0025806,8.43548387 L40.8896774,8.43548387 C40.7087486,8.43548669 40.5547019,8.56709672 40.5264516,8.74580645 L40.4329032,9.33677419 L40.2851613,9.12258065 C39.8277419,8.45870968 38.8077419,8.23677419 37.7896774,8.23677419 C35.4548387,8.23677419 33.4606452,10.0051613 33.0722581,12.4858065 C32.8703226,13.7232258 33.1574194,14.9064516 33.8593548,15.7316129 C34.5032258,16.4903226 35.4245161,16.8064516 36.5206452,16.8064516 C38.4019355,16.8064516 39.4451613,15.5967742 39.4451613,15.5967742 L39.3509677,16.183871 C39.3339814,16.2901009 39.3643634,16.3984418 39.434109,16.4803496 C39.5038547,16.5622573 39.6059691,16.609517 39.7135484,16.6096774 L41.6167742,16.6096774 C41.9187638,16.6098179 42.1758518,16.3899653 42.2225806,16.0916129 L43.3645161,8.86 C43.3815263,8.75400303 43.3512016,8.64587803 43.281552,8.56418566 C43.2119024,8.4824933 43.1099338,8.43545068 43.0025806,8.43548387 L43.0025806,8.43548387 Z M40.0574194,12.5477419 C39.8535484,13.7548387 38.8954839,14.5651613 37.6735484,14.5651613 C37.06,14.5651613 36.5696774,14.3683871 36.2548387,13.9954839 C35.9425806,13.6251613 35.823871,13.0980645 35.9232258,12.5109677 C36.1135484,11.3141935 37.0877419,10.4774194 38.2909677,10.4774194 C38.8909677,10.4774194 39.3787097,10.6767742 39.7,11.0529032 C40.0219355,11.4329032 40.1496774,11.9632258 40.0574194,12.5477419 L40.0574194,12.5477419 Z M54.2554839,8.43548257 L52.1322581,8.43548257 C51.9289667,8.43580568 51.7389473,8.53648939 51.6245161,8.70451613 L48.696129,13.0180645 L47.4548387,8.87290323 C47.3766038,8.61331676 47.1375712,8.43561486 46.8664516,8.43548257 L44.78,8.43548257 C44.661169,8.43516787 44.5495091,8.4922923 44.480234,8.58884209 C44.4109589,8.68539187 44.3926077,8.80946588 44.4309677,8.92193548 L46.7696774,15.7851613 L44.5709677,18.8890323 C44.4913082,19.0012213 44.4809419,19.1484947 44.5441001,19.2707364 C44.6072584,19.3929782 44.7333741,19.469678 44.8709677,19.469678 L46.9916129,19.469678 C47.192593,19.4699542 47.3809105,19.3715758 47.4954839,19.2064516 L54.5574194,9.01290323 C54.6354343,8.90049739 54.6445916,8.75407227 54.5811894,8.63282227 C54.5177872,8.51157228 54.39231,8.43548257 54.2554839,8.43548257 L54.2554839,8.43548257 Z" id="形状" fill="#253B80"></path>
                <path d="M61.2851613,4.35419355 L56.8722581,4.35419355 C56.5707218,4.35432076 56.3140729,4.57375832 56.2670968,4.8716129 L54.4825806,16.1858065 C54.4657832,16.2918752 54.4962739,16.3999803 54.5660195,16.4816397 C54.6357652,16.5632992 54.7377708,16.6103226 54.8451613,16.6103226 L57.1096774,16.6103226 C57.3207315,16.6100131 57.5002138,16.4562493 57.5329032,16.2477419 L58.0393548,13.0406452 C58.0860459,12.7425342 58.342771,12.5227579 58.6445161,12.5225806 L60.0406452,12.5225806 C62.9477419,12.5225806 64.6245161,11.116129 65.0632258,8.32903226 C65.2612903,7.10967742 65.0709677,6.1516129 64.5,5.48064516 C63.8735484,4.74387097 62.7619355,4.35419355 61.2851613,4.35419355 L61.2851613,4.35419355 Z M61.7941935,8.48645161 C61.5535484,10.0696774 60.343871,10.0696774 59.1735484,10.0696774 L58.5083871,10.0696774 L58.976129,7.11290323 C59.0038349,6.93415214 59.1578243,6.80235698 59.3387097,6.80258036 L59.643871,6.80258036 C60.44,6.80258036 61.1922581,6.80258036 61.5806452,7.25677419 C61.8122581,7.52774194 61.8825806,7.93032258 61.7941935,8.48645161 L61.7941935,8.48645161 Z M74.4735484,8.43548387 L72.3619355,8.43548387 C72.1809491,8.43498602 72.0268055,8.56691325 71.9993548,8.74580645 L71.9058065,9.33677419 L71.7574194,9.12258065 C71.3,8.45870968 70.2806452,8.23677419 69.2625806,8.23677419 C66.9277419,8.23677419 64.9341935,10.0051613 64.5458065,12.4858065 C64.3445161,13.7232258 64.6303226,14.9064516 65.3322581,15.7316129 C65.9774194,16.4903226 66.8974194,16.8064516 67.9935484,16.8064516 C69.8748387,16.8064516 70.9180645,15.5967742 70.9180645,15.5967742 L70.823871,16.183871 C70.8068489,16.2903236 70.8373951,16.3988839 70.9074308,16.4808406 C70.9774666,16.5627973 71.0799372,16.609895 71.1877419,16.6096774 L73.0903226,16.6096774 C73.3920677,16.6095002 73.6487928,16.3897238 73.6954839,16.0916129 L74.8380645,8.86 C74.8544558,8.75367707 74.8235519,8.64550154 74.7534689,8.5638828 C74.683386,8.48226407 74.5811273,8.43535824 74.4735484,8.43548387 L74.4735484,8.43548387 Z M71.5283871,12.5477419 C71.3258065,13.7548387 70.3664516,14.5651613 69.1445161,14.5651613 C68.5322581,14.5651613 68.0406452,14.3683871 67.7258065,13.9954839 C67.4135484,13.6251613 67.296129,13.0980645 67.3941935,12.5109677 C67.5858065,11.3141935 68.5587097,10.4774194 69.7619355,10.4774194 C70.3619355,10.4774194 70.8496774,10.6767742 71.1709677,11.0529032 C71.4941935,11.4329032 71.6219355,11.9632258 71.5283871,12.5477419 L71.5283871,12.5477419 Z M76.9645161,4.66451613 L75.1535484,16.1858065 C75.1367509,16.2918752 75.1672416,16.3999803 75.2369873,16.4816397 C75.3067329,16.5632992 75.4087385,16.6103226 75.516129,16.6103226 L77.3367742,16.6103226 C77.6393548,16.6103226 77.896129,16.3909677 77.9425806,16.0922581 L79.7283871,4.77870968 C79.7451641,4.67258012 79.714686,4.56442162 79.6449647,4.48266655 C79.5752434,4.40091149 79.4732537,4.35373854 79.3658065,4.35354839 L77.3270968,4.35354839 C77.1463038,4.35418856 76.9926948,4.48593152 76.9645161,4.66451613 L76.9645161,4.66451613 Z" id="形状" fill="#179BD7"></path>
                <path d="M4.68774194,18.8090323 L5.02516129,16.6658065 L4.27354839,16.6483871 L0.684516129,16.6483871 L3.17870968,0.833548387 C3.19405702,0.733674783 3.28024581,0.660112378 3.38129032,0.660642286 L9.43290323,0.660642286 C11.4419355,0.660642286 12.8283871,1.07870968 13.5522581,1.90387097 C13.8916129,2.29096774 14.1077419,2.69548387 14.2122581,3.14064516 C14.3219355,3.60774194 14.323871,4.16580645 14.2167742,4.84645161 L14.2090323,4.89612903 L14.2090323,5.33225806 L14.5483871,5.52451613 C14.8074562,5.65576778 15.040323,5.83331504 15.2354839,6.0483871 C15.5258065,6.37935484 15.7135484,6.8 15.7929032,7.29870968 C15.8748387,7.8116129 15.8477419,8.42193548 15.7135484,9.11290323 C15.5587097,9.90774194 15.3083871,10.6 14.9703226,11.1664516 C14.6720438,11.6739009 14.2709961,12.1134052 13.7929032,12.4567742 C13.343871,12.7754839 12.8103226,13.0174194 12.2070968,13.1722581 C11.6225806,13.3245161 10.956129,13.4012903 10.2251613,13.4012903 L9.75419355,13.4012903 C9.41741935,13.4012903 9.09032258,13.5225806 8.83354839,13.74 C8.57713825,13.9597393 8.40704163,14.2633526 8.35354839,14.5967742 L8.31806452,14.7896774 L7.72193548,18.5670968 L7.69483871,18.7058065 C7.68774194,18.7496774 7.67548387,18.7716129 7.65741935,18.7864516 C7.63991996,18.8007627 7.61808787,18.8087224 7.59548387,18.8090323 L4.68774194,18.8090323 Z" id="路径" fill="#253B80"></path>
                <path d="M14.8696774,4.94645161 C14.8516129,5.06193548 14.8309677,5.18 14.8077419,5.30129032 C14.0096774,9.39870968 11.2793548,10.8141935 7.79225806,10.8141935 L6.01677419,10.8141935 C5.59032258,10.8141935 5.23096774,11.123871 5.16451613,11.5445161 L4.25548387,17.3096774 L3.99806452,18.943871 C3.97731195,19.075056 4.01502012,19.2087516 4.10126151,19.3097595 C4.18750289,19.4107674 4.31363532,19.4690323 4.44645161,19.4690323 L7.59548387,19.4690323 C7.9683871,19.4690323 8.28516129,19.1980645 8.34387097,18.8303226 L8.37483871,18.6703226 L8.96774194,14.9077419 L9.00580645,14.7012903 C9.06387097,14.3322581 9.38129032,14.0612903 9.75419355,14.0612903 L10.2251613,14.0612903 C13.276129,14.0612903 15.6645161,12.8225806 16.3625806,9.23806452 C16.6541935,7.74064516 16.5032258,6.49032258 15.7316129,5.61096774 C15.4870518,5.33894391 15.1949693,5.1137606 14.8696774,4.94645161 L14.8696774,4.94645161 Z" id="路径" fill="#179BD7"></path>
                <path d="M14.0348387,4.61354839 C13.780017,4.53983303 13.5207905,4.48229896 13.2587097,4.44129032 C12.7408516,4.36170443 12.2174741,4.32351901 11.6935484,4.32709677 L6.95032258,4.32709677 C6.57734053,4.32686687 6.25986448,4.59853978 6.20258065,4.96709677 L5.19354839,11.3580645 L5.16451613,11.5445161 C5.22946913,11.1241256 5.59139545,10.8139813 6.01677419,10.8141935 L7.79225806,10.8141935 C11.2793548,10.8141935 14.0096774,9.39806452 14.8077419,5.30129032 C14.8316129,5.18 14.8516129,5.06193548 14.8696774,4.94645161 C14.6590873,4.83601844 14.4396089,4.7434361 14.2135484,4.66967742 C14.1542826,4.6500128 14.0947051,4.63130071 14.0348387,4.61354839 L14.0348387,4.61354839 Z" id="路径" fill="#222D65"></path>
                <path d="M6.20258065,4.96709677 C6.25938609,4.59836999 6.57724758,4.32658334 6.95032258,4.32774194 L11.6935484,4.32774194 C12.2554839,4.32774194 12.78,4.36451613 13.2587097,4.44193548 C13.58265,4.49284661 13.902117,4.56899234 14.2141935,4.66967742 C14.4496774,4.74774194 14.6683871,4.84 14.8703226,4.94645161 C15.1077419,3.43225806 14.8683871,2.40129032 14.0496774,1.46774194 C13.1470968,0.44 11.5180645,0 9.43354839,0 L3.38193548,0 C2.95612903,0 2.59290323,0.309677419 2.52709677,0.730967742 L0.0064516129,16.7083871 C-0.0173086674,16.8585079 0.0257996731,17.0115094 0.124436952,17.1271446 C0.22307423,17.2427797 0.367365503,17.3094718 0.519354839,17.3096774 L4.25548387,17.3096774 L5.19354839,11.3580645 L6.20258065,4.96709677 Z" id="路径" fill="#253B80"></path>
            </g>
        </g>
    </g>
</svg>